<svg width="24" height="24" viewBox="0 0 24 24" fill="none" xmlns="http://www.w3.org/2000/svg">
<path d="M10.625 6.70435C10.625 5.73043 9.87497 5 8.87497 5H3.74999C2.75 5 2 5.73043 2 6.70435V11.6957C2 12.6696 2.75 13.4 3.74999 13.4H7.62497L3.49999 19H6.37498L10.625 13.4V6.70435Z" fill="#4E6B8C"/>
<path d="M22 6.70435C22 5.73043 21.25 5 20.25 5H15.125C14.125 5 13.375 5.73043 13.375 6.70435V11.6957C13.375 12.6696 14.125 13.4 15.125 13.4H19L14.875 19H17.75L22 13.2783V6.70435Z" fill="#4E6B8C"/>
</svg>
